<svg id="Layer_1" data-name="Layer 1" xmlns="http://www.w3.org/2000/svg" xmlns:xlink="http://www.w3.org/1999/xlink" viewBox="0 0 2400 2400"><defs><style>.cls-1{fill:#929497;}.cls-2{fill:#bbbdbf;}.cls-3{fill:#8cc540;opacity:0.26;}.cls-4{fill:url(#linear-gradient);}.cls-5{fill:url(#linear-gradient-2);}.cls-6{fill:url(#linear-gradient-3);}.cls-7{fill:url(#linear-gradient-4);}.cls-8{fill:url(#linear-gradient-5);}.cls-9{fill:url(#linear-gradient-6);}.cls-10{fill:url(#linear-gradient-7);}.cls-11{fill:url(#linear-gradient-8);}.cls-12{fill:url(#linear-gradient-9);}.cls-13{fill:url(#linear-gradient-10);}.cls-14{fill:url(#linear-gradient-11);}</style><linearGradient id="linear-gradient" x1="990.16" y1="607.58" x2="1269.89" y2="1275.98" gradientUnits="userSpaceOnUse"><stop offset="0" stop-color="#fedd10"/><stop offset="1" stop-color="#fbb615"/></linearGradient><linearGradient id="linear-gradient-2" x1="769.93" y1="758.92" x2="1112.71" y2="1577.98" xlink:href="#linear-gradient"/><linearGradient id="linear-gradient-3" x1="1187.41" y1="907.04" x2="1216.35" y2="907.04" xlink:href="#linear-gradient"/><linearGradient id="linear-gradient-4" x1="503.51" y1="1136.78" x2="781" y2="1363.53" gradientUnits="userSpaceOnUse"><stop offset="0" stop-color="#fbb615"/><stop offset="1" stop-color="#fedd10"/></linearGradient><linearGradient id="linear-gradient-5" x1="536.12" y1="1011.83" x2="789.81" y2="1219.13" xlink:href="#linear-gradient"/><linearGradient id="linear-gradient-6" x1="1018.06" y1="897.24" x2="1234.89" y2="1228.09" xlink:href="#linear-gradient"/><linearGradient id="linear-gradient-7" x1="726.13" y1="890.04" x2="1290.56" y2="1284.4" xlink:href="#linear-gradient"/><linearGradient id="linear-gradient-8" x1="1286.3" y1="1259.46" x2="1060.12" y2="1137.96" xlink:href="#linear-gradient"/><linearGradient id="linear-gradient-9" x1="1822.24" y1="1144.49" x2="1930.93" y2="1368.8" xlink:href="#linear-gradient"/><linearGradient id="linear-gradient-10" x1="2083.84" y1="1653.55" x2="1737.64" y2="1101.14" xlink:href="#linear-gradient"/><linearGradient id="linear-gradient-11" x1="1603.35" y1="1283.24" x2="1356.61" y2="1064.55" xlink:href="#linear-gradient"/></defs><path class="cls-1" d="M440.5,1483.5H389.68v67.37H440.5c14.83,0,20.88-5.66,20.88-19.54V1503.7C461.38,1489.36,455.33,1483.5,440.5,1483.5Zm-37,13.32h37c6,0,7,1,7,6.88v27.44c0,5.32-1.11,6.32-7,6.32h-37Z"/><rect class="cls-1" x="476.22" y="1483.5" width="13.78" height="67.37"/><path class="cls-1" d="M555.62,1535.08c0,.65,0,2.38-4.29,2.38H523.05c-4.37,0-4.37-1.94-4.37-2.57V1500.7c0-2.75,1.27-3.88,4.37-3.88h45.59V1483.5H523.13c-12.09,0-18.23,5.79-18.23,17.2V1535c0,10.39,6.31,15.89,18.23,15.89h28.2c10.89,0,18.15-2.68,18.15-15.79v-21.6H555.62Z"/><rect class="cls-1" x="584.16" y="1483.5" width="13.78" height="67.37"/><polygon class="cls-1" points="678.32 1483.5 610.04 1483.5 610.04 1496.82 637.56 1496.82 637.56 1550.87 651.41 1550.87 651.41 1496.82 678.32 1496.82 678.32 1483.5"/><polygon class="cls-1" points="711.56 1483.5 701.61 1483.5 665.29 1550.87 680.71 1550.87 706.66 1501.49 731.88 1550.48 732.08 1550.87 747.65 1550.87 711.76 1483.88 711.56 1483.5"/><polygon class="cls-1" points="766.08 1483.5 752.14 1483.5 752.14 1550.87 808.3 1550.87 808.3 1537.46 766.08 1537.46 766.08 1483.5"/><path class="cls-1" d="M834.65,1500.14v34.09c0,10.88,6.17,16.64,17.84,16.64h44.76v-13.41H852.49c-3.58,0-4.06-1.58-4.06-3.13V1500c0-1.45.46-3.13,4.06-3.13h44.76V1483.5H852.49C840.82,1483.5,834.65,1489.26,834.65,1500.14Z"/><path class="cls-1" d="M959.4,1483.5H923.24c-11.68,0-17.84,5.76-17.84,16.64v34.09c0,10.88,6.16,16.64,17.84,16.64H959.4c11.67,0,17.84-5.76,17.84-16.64v-34.09C977.24,1489.26,971.07,1483.5,959.4,1483.5ZM919.17,1500c0-1.45.46-3.13,4.07-3.13H959.4c3.6,0,4.06,1.68,4.06,3.13v34.38c0,1.55-.48,3.13-4.06,3.13H923.24c-3.58,0-4.07-1.58-4.07-3.13Z"/><polygon class="cls-1" points="1048.31 1527.78 998.63 1483.68 998.43 1483.5 986.76 1483.5 986.76 1550.87 998.95 1550.87 998.95 1503.66 1053.34 1550.7 1053.54 1550.87 1060.58 1550.87 1060.58 1483.5 1048.31 1483.5 1048.31 1527.78"/><polygon class="cls-1" points="1072.24 1496.82 1099.76 1496.82 1099.76 1550.87 1113.61 1550.87 1113.61 1496.82 1140.52 1496.82 1140.52 1483.5 1072.24 1483.5 1072.24 1496.82"/><polygon class="cls-1" points="1152.25 1550.87 1209.93 1550.87 1209.93 1537.46 1166.04 1537.46 1166.04 1522.02 1207.58 1522.02 1207.58 1508.61 1166.04 1508.61 1166.04 1496.82 1209.93 1496.82 1209.93 1483.5 1152.25 1483.5 1152.25 1550.87"/><polygon class="cls-1" points="1281.97 1527.78 1232.29 1483.68 1232.09 1483.5 1220.41 1483.5 1220.41 1550.87 1232.6 1550.87 1232.6 1503.66 1286.99 1550.7 1287.2 1550.87 1294.24 1550.87 1294.24 1483.5 1281.97 1483.5 1281.97 1527.78"/><polygon class="cls-1" points="1305.89 1496.82 1333.41 1496.82 1333.41 1550.87 1347.27 1550.87 1347.27 1496.82 1374.18 1496.82 1374.18 1483.5 1305.89 1483.5 1305.89 1496.82"/><polygon class="cls-1" points="1439.5 1483.5 1429.55 1483.5 1393.8 1549.82 1393.23 1550.87 1408.65 1550.87 1434.6 1501.49 1459.82 1550.48 1460.02 1550.87 1475.59 1550.87 1439.71 1483.88 1439.5 1483.5"/><polygon class="cls-1" points="1541.64 1527.78 1491.95 1483.68 1491.75 1483.5 1480.08 1483.5 1480.08 1550.87 1492.27 1550.87 1492.27 1503.66 1546.66 1550.7 1546.86 1550.87 1553.9 1550.87 1553.9 1483.5 1541.64 1483.5 1541.64 1527.78"/><path class="cls-1" d="M1617.52,1483.5H1566.7v67.37h50.82c14.82,0,20.87-5.66,20.87-19.54V1503.7C1638.39,1489.36,1632.34,1483.5,1617.52,1483.5Zm-37,13.32h37c6,0,7,1,7,6.88v27.44c0,5.32-1.11,6.32-7,6.32h-37Z"/><polygon class="cls-1" points="1720.13 1533.88 1689.83 1483.5 1677.19 1483.5 1677.19 1550.87 1690.06 1550.87 1690.06 1511.21 1713.91 1550.53 1714.12 1550.87 1725.08 1550.87 1748.98 1511.13 1748.98 1550.87 1761.85 1550.87 1761.85 1483.5 1750.2 1483.5 1720.13 1533.88"/><polygon class="cls-1" points="1775.62 1550.87 1833.29 1550.87 1833.29 1537.46 1789.4 1537.46 1789.4 1522.02 1830.94 1522.02 1830.94 1508.61 1789.4 1508.61 1789.4 1496.82 1833.29 1496.82 1833.29 1483.5 1775.62 1483.5 1775.62 1550.87"/><path class="cls-1" d="M1896.25,1483.5h-50.83v67.37h50.83c14.82,0,20.87-5.66,20.87-19.54V1503.7C1917.12,1489.36,1911.07,1483.5,1896.25,1483.5Zm-37,13.32h37c6,0,7,1,7,6.88v27.44c0,5.32-1.12,6.32-7,6.32h-37Z"/><rect class="cls-1" x="1926.94" y="1483.5" width="13.78" height="67.37"/><polygon class="cls-1" points="1997.07 1483.88 1996.86 1483.5 1986.91 1483.5 1951.16 1549.82 1950.59 1550.87 1966.01 1550.87 1991.96 1501.49 2017.18 1550.48 2017.38 1550.87 2032.95 1550.87 1997.07 1483.88"/><path class="cls-2" d="M651.42,1662.65l-17.67-47.12-18.27,47.12h-9l-24.79-66h11.9l17.52,47.12,18-47.12h9.25L656,1643.82l17.74-47.12h12l-24.94,66Z"/><path class="cls-2" d="M739.68,1662.65l-25.85-50.21-26.38,50.21h-13.8l35.55-66h9.1l35.33,66Z"/><path class="cls-2" d="M760,1662.65v-66h12.51v54h42.23v12Z"/><path class="cls-2" d="M884.29,1662.65l-25.85-50.21-26.39,50.21H818.26l35.55-66h9.1l35.32,66Z"/><path class="cls-2" d="M905,1662.65v-66h12.35v66Z"/><path class="cls-2" d="M934.07,1662.65v-66h12.51v54H988.8v12Z"/><path class="cls-2" d="M1058.34,1662.65l-25.86-50.21-26.38,50.21H992.3l35.56-66h9.1l35.32,66Z"/><path class="cls-2" d="M1130.17,1662.65l-17.74-28.1h-16.38v28.1H1083.7v-66h12.35v25.86h16.07l17.67-25.86h14.63l-22.06,30.63,22,35.32Z"/><path class="cls-2" d="M1242.14,1596.7h12.36v50c0,9.46-4.7,15.93-17.13,15.93h-34c-12.43,0-17.13-6.47-17.13-15.93v-50h12.35v50.12c0,2.71,1.67,3.84,4.78,3.84h34c3.11,0,4.77-1.13,4.77-3.84Z"/><path class="cls-2" d="M1331.85,1662.65l-55.57-48.06v48.06h-10.77v-66h10.69l50.87,45.15V1596.7h10.84v66Z"/><path class="cls-2" d="M1349.53,1662.65v-66h12.36v66Z"/><path class="cls-2" d="M1404.27,1662.65l-35.63-66h14l26.39,50.12,25.85-50.12h13.72l-35.33,66Z"/><path class="cls-2" d="M1455,1662.65v-66h56.25v11.9h-43.89v13.21h41.54v12h-41.54v16.86h43.89v12Z"/><path class="cls-2" d="M1570.94,1662.65,1559,1633.33h-25.47v29.32h-12.35v-66h46.39c12.44,0,17.21,6.46,17.21,15.93v4.78c0,7.86-3,14.14-12.58,15.73l12,29.51Zm1.44-50.21c0-2.62-1.67-3.84-4.78-3.84h-34v12.83h34c3.26,0,4.78-.75,4.78-3.93Z"/><path class="cls-2" d="M1595,1662.65v-12h47.46c3.48,0,4.85-.75,4.85-3.94v-9.46c0-3-1.44-4-4.85-4h-31.92c-12.51,0-17.28-6.47-17.28-16v-4.5c0-9.56,4.77-16,17.28-16h46.17v11.9h-46.17c-3.26,0-4.93,1-4.93,4v4.68c0,2.81,1.44,4,4.93,4h31.92c12.51,0,17.28,6.46,17.28,16v9.18c0,9.55-4.77,16.11-17.28,16.11Z"/><path class="cls-2" d="M1669.76,1662.65v-66h12.35v66Z"/><path class="cls-2" d="M1718.13,1662.65V1608.6h-27.52v-11.9h66.87v11.9h-26.92v54.05Z"/><path class="cls-2" d="M1794.79,1662.65v-26.14l-34.11-39.81h15.77l24.48,28.76,24.41-28.76H1841l-33.81,39.81v26.14Z"/><path class="cls-3" d="M664.56,1392.36h0Z"/><rect class="cls-4" x="1064.87" y="825.56" width="56.82" height="56.82"/><rect class="cls-5" x="822.17" y="916.7" width="47.44" height="47.44"/><rect class="cls-6" x="1187.41" y="892.57" width="28.94" height="28.94"/><path class="cls-7" d="M862.78,1187.81c-.52,22.54-7.73,41.11-18.76,56.14a224.21,224.21,0,0,1-44.45,36.6c-24,12.38-49.53,17.74-65.89,17.74h-115v-181h-99.2v275.06h143.3c110.57-.22,200.14-89.92,200.14-200.55C862.88,1190.46,862.81,1189.14,862.78,1187.81Z"/><path class="cls-8" d="M895.62,1028.73c-38-33.64-90.78-54.68-155.62-54.68H672.17v56.54H615.35V974.05H519.44v94.06h49.75v49.18h49.48v-49.18h115c17.94,0,33.44,2.24,46.91,6.09,54.09,15.47,74.56,57.5,80.37,90.15a120,120,0,0,1,1.92,20.88c0,.88-.08,1.71-.1,2.58,0,1.33.1,2.65.1,4,0,110.63-89.57,200.33-200.14,200.55h77.71c136,0,223.89-94.3,223.89-207.59C964.34,1124.39,940,1068,895.62,1028.73Z"/><path class="cls-9" d="M1310.77,1239.21a168.91,168.91,0,1,1-302-144.87h0c2.23-3.43,4.6-6.76,7.07-10a169.55,169.55,0,0,1,45.65-41.56q4.33-2.68,8.86-5.11l.19-.11a168.91,168.91,0,0,1,234.93,82,116.34,116.34,0,0,1,6.86,11.63h112.55c-19.69-82.31-83.63-145-162.78-165.44v38.56h-45.7V958.85a224.46,224.46,0,0,0-116.88,26.48l-.26.13c-4,2.17-8,4.43-11.82,6.82-.67.42-1.32.88-2,1.3v0l-.29.23c-2.31,1.47-4.6,3-6.85,4.5a33.3,33.3,0,0,1-14.78,3.45h-.36c-15.79-.16-28.25-13.56-28.25-29.35v-37H964.34v70.53l32.13,0c12.25,0,23.65,7.42,27.52,19a33.32,33.32,0,0,1,1.71,10.58,51.68,51.68,0,0,1-3.88,18.9c-1.58,2.23-3.23,4.4-4.72,6.69h0a224.23,224.23,0,0,0-34.79,149.79c14.94,123.48,127.15,211.47,250.63,196.54,95.77-11.59,170.16-81.71,191.77-170.2H1311.86C1311.51,1237.87,1311.13,1238.54,1310.77,1239.21Z"/><path class="cls-10" d="M1223,1298.77a115.79,115.79,0,0,1-111-178.09h0q2.3-3.53,4.85-6.87a116,116,0,0,1,31.29-28.49c2-1.23,4-2.4,6.08-3.51l.13-.07a115.8,115.8,0,0,1,151.05,37.77,168.91,168.91,0,0,0-234.93-82l-.19.11q-4.52,2.43-8.86,5.11a169.55,169.55,0,0,0-45.65,41.56c-2.47,3.26-4.84,6.59-7.07,10h0a168.91,168.91,0,1,0,302,144.87A115.64,115.64,0,0,1,1223,1298.77Z"/><path class="cls-11" d="M1223,1298.77a115.79,115.79,0,0,1-111-178.09h0q2.3-3.53,4.85-6.87a116,116,0,0,1,31.29-28.49c2-1.23,4-2.4,6.08-3.51l.13-.07a115.8,115.8,0,0,1,151.05,37.77,168.91,168.91,0,0,0-234.93-82l-.19.11q-4.52,2.43-8.86,5.11a169.55,169.55,0,0,0-45.65,41.56c-2.47,3.26-4.84,6.59-7.07,10h0a168.91,168.91,0,1,0,302,144.87A115.64,115.64,0,0,1,1223,1298.77Z"/><polygon class="cls-12" points="1903.19 1046.66 1813.27 1187.81 1813.27 1390.86 1903.19 1390.86 1903.19 1046.66"/><polygon class="cls-13" points="1673.45 1391.7 1903.19 1028.99 1903.19 972.33 1813.27 972.33 1673.45 1205.49 1673.45 1391.7"/><path class="cls-14" d="M1533.63,972.33H1443.7v57.09H1499v56.82H1443.7v304.62h89.93V1171l139.82,220.74V1205.49ZM1618,1190.55h-28.94v-28.94H1618Z"/></svg>